<svg width="246" height="60" viewBox="0 0 246 60" fill="none" xmlns="http://www.w3.org/2000/svg">
<rect width="246" height="60" rx="30" fill="#20DC49"/>
<path opacity="0.4" d="M31.425 48.8356C41.979 48.8356 50.5346 40.28 50.5346 29.726C50.5346 19.1721 41.979 10.6165 31.425 10.6165C20.8711 10.6165 12.3154 19.1721 12.3154 29.726C12.3154 40.28 20.8711 48.8356 31.425 48.8356Z" fill="black"/>
<path d="M25.0801 29.5539L28.2332 30.3374L26.4178 37.6754C25.9974 39.3953 26.8382 39.9687 28.2905 38.9559L38.1893 32.0955C39.3932 31.2546 39.2212 30.28 37.788 29.9169L34.6349 29.1335L36.4504 21.7954C36.8708 20.0755 36.0299 19.5022 34.5776 20.5151L24.6788 27.3754C23.4749 28.2163 23.6469 29.1908 25.0801 29.5539Z" fill="black"/>
<path d="M71.8873 35.8081L69.3496 31.4511H67.6679V35.8081H66.2768V25.1526H69.7165C70.5216 25.1526 71.1994 25.2902 71.7497 25.5654C72.3103 25.8405 72.7282 26.2125 73.0033 26.6814C73.2785 27.1502 73.4161 27.6853 73.4161 28.2866C73.4161 29.0204 73.2021 29.6676 72.774 30.2281C72.3562 30.7887 71.7243 31.1607 70.8783 31.3441L73.5537 35.8081H71.8873ZM67.6679 30.3351H69.7165C70.4707 30.3351 71.0363 30.1517 71.4134 29.7848C71.7905 29.4077 71.9791 28.9083 71.9791 28.2866C71.9791 27.6547 71.7905 27.1655 71.4134 26.819C71.0465 26.4724 70.4809 26.2992 69.7165 26.2992H67.6679V30.3351ZM79.2315 35.9457C78.4467 35.9457 77.7333 35.7673 77.0912 35.4106C76.4593 35.0539 75.9599 34.5494 75.593 33.8971C75.2363 33.2347 75.058 32.4703 75.058 31.604C75.058 30.7479 75.2414 29.9937 75.6083 29.3414C75.9854 28.679 76.495 28.1745 77.1371 27.8279C77.7792 27.4712 78.4977 27.2929 79.2927 27.2929C80.0876 27.2929 80.8061 27.4712 81.4482 27.8279C82.0903 28.1745 82.5948 28.6739 82.9617 29.3261C83.3388 29.9784 83.5273 30.7377 83.5273 31.604C83.5273 32.4703 83.3337 33.2347 82.9464 33.8971C82.5693 34.5494 82.0546 35.0539 81.4024 35.4106C80.7501 35.7673 80.0265 35.9457 79.2315 35.9457ZM79.2315 34.7227C79.7309 34.7227 80.1997 34.6055 80.638 34.3711C81.0762 34.1367 81.4278 33.785 81.6928 33.3162C81.968 32.8474 82.1056 32.2767 82.1056 31.604C82.1056 30.9313 81.9731 30.3606 81.7081 29.8918C81.4431 29.423 81.0966 29.0764 80.6685 28.8522C80.2405 28.6178 79.7768 28.5006 79.2774 28.5006C78.7678 28.5006 78.299 28.6178 77.8709 28.8522C77.453 29.0764 77.1167 29.423 76.8619 29.8918C76.6071 30.3606 76.4797 30.9313 76.4797 31.604C76.4797 32.2868 76.602 32.8627 76.8466 33.3315C77.1014 33.8003 77.4378 34.1519 77.8556 34.3864C78.2735 34.6106 78.7321 34.7227 79.2315 34.7227ZM92.5723 27.4305L87.5273 39.7523H86.0903L87.7414 35.7164L84.3628 27.4305H85.9068L88.5363 34.2182L91.1352 27.4305H92.5723ZM93.451 31.5887C93.451 30.7326 93.6242 29.9835 93.9707 29.3414C94.3173 28.6891 94.7912 28.1847 95.3925 27.8279C96.004 27.4712 96.6817 27.2929 97.4257 27.2929C98.1596 27.2929 98.7965 27.4508 99.3367 27.7668C99.8769 28.0827 100.279 28.4802 100.544 28.9592V27.4305H101.951V35.8081H100.544V34.2488C100.269 34.738 99.8565 35.1456 99.3061 35.4718C98.766 35.7877 98.1341 35.9457 97.4105 35.9457C96.6665 35.9457 95.9938 35.7622 95.3925 35.3953C94.7912 35.0284 94.3173 34.5137 93.9707 33.8513C93.6242 33.1888 93.451 32.4346 93.451 31.5887ZM100.544 31.604C100.544 30.9721 100.417 30.4217 100.162 29.9529C99.9074 29.4841 99.5609 29.1274 99.1227 28.8828C98.6946 28.628 98.2207 28.5006 97.7009 28.5006C97.1811 28.5006 96.7072 28.6229 96.2792 28.8675C95.8511 29.1121 95.5097 29.4688 95.2549 29.9376C95.0001 30.4065 94.8727 30.9568 94.8727 31.5887C94.8727 32.2308 95.0001 32.7913 95.2549 33.2704C95.5097 33.7392 95.8511 34.101 96.2792 34.3558C96.7072 34.6004 97.1811 34.7227 97.7009 34.7227C98.2207 34.7227 98.6946 34.6004 99.1227 34.3558C99.5609 34.101 99.9074 33.7392 100.162 33.2704C100.417 32.7913 100.544 32.2359 100.544 31.604ZM105.693 24.4952V35.8081H104.302V24.4952H105.693ZM115.518 35.9151C114.815 35.9151 114.183 35.7928 113.623 35.5482C113.072 35.2934 112.639 34.9469 112.323 34.5087C112.007 34.0602 111.844 33.5455 111.834 32.9646H113.317C113.368 33.464 113.572 33.887 113.928 34.2335C114.295 34.5698 114.825 34.738 115.518 34.738C116.181 34.738 116.701 34.5749 117.078 34.2488C117.465 33.9124 117.659 33.4844 117.659 32.9646C117.659 32.5569 117.547 32.2257 117.322 31.9709C117.098 31.7161 116.818 31.5225 116.481 31.39C116.145 31.2575 115.692 31.1148 115.121 30.9619C114.418 30.7785 113.852 30.595 113.424 30.4116C113.006 30.2281 112.644 29.9427 112.339 29.5554C112.043 29.158 111.895 28.628 111.895 27.9655C111.895 27.3846 112.043 26.8699 112.339 26.4215C112.634 25.973 113.047 25.6265 113.577 25.3819C114.117 25.1373 114.734 25.015 115.427 25.015C116.425 25.015 117.241 25.2647 117.873 25.7641C118.515 26.2635 118.877 26.926 118.958 27.7515H117.429C117.378 27.3438 117.164 26.9871 116.787 26.6814C116.41 26.3654 115.911 26.2074 115.289 26.2074C114.708 26.2074 114.234 26.3603 113.867 26.6661C113.5 26.9616 113.317 27.3795 113.317 27.9197C113.317 28.307 113.424 28.6229 113.638 28.8675C113.862 29.1121 114.132 29.3007 114.448 29.4331C114.774 29.5554 115.228 29.6981 115.809 29.8612C116.512 30.0548 117.078 30.2485 117.506 30.4421C117.934 30.6256 118.301 30.9161 118.606 31.3135C118.912 31.7008 119.065 32.2308 119.065 32.9034C119.065 33.4232 118.928 33.9124 118.652 34.3711C118.377 34.8297 117.969 35.2017 117.429 35.4871C116.889 35.7724 116.252 35.9151 115.518 35.9151ZM122.809 28.577V33.515C122.809 33.9226 122.896 34.2131 123.069 34.3864C123.242 34.5494 123.543 34.631 123.971 34.631H124.995V35.8081H123.742C122.967 35.8081 122.386 35.6297 121.999 35.273C121.612 34.9163 121.418 34.3303 121.418 33.515V28.577H120.333V27.4305H121.418V25.3208H122.809V27.4305H124.995V28.577H122.809ZM130.335 35.9457C129.55 35.9457 128.837 35.7673 128.194 35.4106C127.563 35.0539 127.063 34.5494 126.696 33.8971C126.34 33.2347 126.161 32.4703 126.161 31.604C126.161 30.7479 126.345 29.9937 126.712 29.3414C127.089 28.679 127.598 28.1745 128.24 27.8279C128.882 27.4712 129.601 27.2929 130.396 27.2929C131.191 27.2929 131.909 27.4712 132.551 27.8279C133.194 28.1745 133.698 28.6739 134.065 29.3261C134.442 29.9784 134.631 30.7377 134.631 31.604C134.631 32.4703 134.437 33.2347 134.05 33.8971C133.673 34.5494 133.158 35.0539 132.506 35.4106C131.853 35.7673 131.13 35.9457 130.335 35.9457ZM130.335 34.7227C130.834 34.7227 131.303 34.6055 131.741 34.3711C132.179 34.1367 132.531 33.785 132.796 33.3162C133.071 32.8474 133.209 32.2767 133.209 31.604C133.209 30.9313 133.076 30.3606 132.811 29.8918C132.546 29.423 132.2 29.0764 131.772 28.8522C131.344 28.6178 130.88 28.5006 130.381 28.5006C129.871 28.5006 129.402 28.6178 128.974 28.8522C128.556 29.0764 128.22 29.423 127.965 29.8918C127.71 30.3606 127.583 30.9313 127.583 31.604C127.583 32.2868 127.705 32.8627 127.95 33.3315C128.205 33.8003 128.541 34.1519 128.959 34.3864C129.377 34.6106 129.835 34.7227 130.335 34.7227ZM135.94 31.604C135.94 30.7377 136.113 29.9835 136.46 29.3414C136.806 28.6891 137.285 28.1847 137.897 27.8279C138.518 27.4712 139.227 27.2929 140.022 27.2929C141.051 27.2929 141.897 27.5426 142.559 28.042C143.232 28.5414 143.675 29.2344 143.89 30.1211H142.391C142.249 29.6115 141.968 29.2089 141.551 28.9134C141.143 28.6178 140.633 28.47 140.022 28.47C139.227 28.47 138.585 28.7452 138.095 29.2956C137.606 29.8357 137.362 30.6052 137.362 31.604C137.362 32.613 137.606 33.3927 138.095 33.943C138.585 34.4934 139.227 34.7685 140.022 34.7685C140.633 34.7685 141.143 34.6259 141.551 34.3405C141.958 34.0551 142.238 33.6474 142.391 33.1175H143.89C143.665 33.9736 143.217 34.6615 142.544 35.1813C141.872 35.6909 141.031 35.9457 140.022 35.9457C139.227 35.9457 138.518 35.7673 137.897 35.4106C137.285 35.0539 136.806 34.5494 136.46 33.8971C136.113 33.2449 135.94 32.4805 135.94 31.604ZM150.424 35.8081L147.137 32.1085V35.8081H145.746V24.4952H147.137V31.1454L150.363 27.4305H152.304L148.36 31.604L152.319 35.8081H150.424ZM159.08 25.1526V35.8081H157.689V25.1526H159.08ZM171.526 27.2776C172.178 27.2776 172.759 27.4152 173.269 27.6904C173.778 27.9553 174.181 28.3579 174.477 28.8981C174.772 29.4382 174.92 30.0956 174.92 30.8702V35.8081H173.544V31.0689C173.544 30.2332 173.335 29.5962 172.917 29.158C172.51 28.7095 171.954 28.4853 171.251 28.4853C170.527 28.4853 169.951 28.7197 169.523 29.1885C169.095 29.6472 168.881 30.3147 168.881 31.1912V35.8081H167.505V31.0689C167.505 30.2332 167.296 29.5962 166.879 29.158C166.471 28.7095 165.915 28.4853 165.212 28.4853C164.489 28.4853 163.913 28.7197 163.485 29.1885C163.057 29.6472 162.843 30.3147 162.843 31.1912V35.8081H161.451V27.4305H162.843V28.6382C163.118 28.1999 163.485 27.8636 163.943 27.6292C164.412 27.3948 164.927 27.2776 165.487 27.2776C166.191 27.2776 166.812 27.4356 167.353 27.7515C167.893 28.0674 168.295 28.5312 168.56 29.1427C168.795 28.5516 169.182 28.0929 169.722 27.7668C170.262 27.4407 170.864 27.2776 171.526 27.2776ZM176.682 31.5887C176.682 30.7326 176.855 29.9835 177.202 29.3414C177.548 28.6891 178.022 28.1847 178.624 27.8279C179.235 27.4712 179.913 27.2929 180.657 27.2929C181.391 27.2929 182.028 27.4508 182.568 27.7668C183.108 28.0827 183.511 28.4802 183.776 28.9592V27.4305H185.182V35.8081H183.776V34.2488C183.5 34.738 183.088 35.1456 182.537 35.4718C181.997 35.7877 181.365 35.9457 180.642 35.9457C179.898 35.9457 179.225 35.7622 178.624 35.3953C178.022 35.0284 177.548 34.5137 177.202 33.8513C176.855 33.1888 176.682 32.4346 176.682 31.5887ZM183.776 31.604C183.776 30.9721 183.648 30.4217 183.393 29.9529C183.139 29.4841 182.792 29.1274 182.354 28.8828C181.926 28.628 181.452 28.5006 180.932 28.5006C180.412 28.5006 179.938 28.6229 179.51 28.8675C179.082 29.1121 178.741 29.4688 178.486 29.9376C178.231 30.4065 178.104 30.9568 178.104 31.5887C178.104 32.2308 178.231 32.7913 178.486 33.2704C178.741 33.7392 179.082 34.101 179.51 34.3558C179.938 34.6004 180.412 34.7227 180.932 34.7227C181.452 34.7227 181.926 34.6004 182.354 34.3558C182.792 34.101 183.139 33.7392 183.393 33.2704C183.648 32.7913 183.776 32.2359 183.776 31.604ZM190.988 27.2929C191.712 27.2929 192.344 27.4508 192.884 27.7668C193.434 28.0827 193.842 28.4802 194.107 28.9592V27.4305H195.513V35.9916C195.513 36.7559 195.35 37.4337 195.024 38.0248C194.698 38.6261 194.229 39.095 193.618 39.4313C193.016 39.7676 192.313 39.9358 191.508 39.9358C190.407 39.9358 189.49 39.6759 188.756 39.1561C188.022 38.6363 187.589 37.928 187.457 37.0311H188.833C188.985 37.5407 189.301 37.9484 189.78 38.2541C190.259 38.5701 190.835 38.7281 191.508 38.7281C192.272 38.7281 192.894 38.4885 193.373 38.0095C193.862 37.5305 194.107 36.8579 194.107 35.9916V34.2335C193.832 34.7227 193.424 35.1304 192.884 35.4565C192.344 35.7826 191.712 35.9457 190.988 35.9457C190.244 35.9457 189.566 35.7622 188.955 35.3953C188.354 35.0284 187.88 34.5137 187.533 33.8513C187.187 33.1888 187.013 32.4346 187.013 31.5887C187.013 30.7326 187.187 29.9835 187.533 29.3414C187.88 28.6891 188.354 28.1847 188.955 27.8279C189.566 27.4712 190.244 27.2929 190.988 27.2929ZM194.107 31.604C194.107 30.9721 193.979 30.4217 193.725 29.9529C193.47 29.4841 193.123 29.1274 192.685 28.8828C192.257 28.628 191.783 28.5006 191.263 28.5006C190.743 28.5006 190.27 28.6229 189.842 28.8675C189.413 29.1121 189.072 29.4688 188.817 29.9376C188.562 30.4065 188.435 30.9568 188.435 31.5887C188.435 32.2308 188.562 32.7913 188.817 33.2704C189.072 33.7392 189.413 34.101 189.842 34.3558C190.27 34.6004 190.743 34.7227 191.263 34.7227C191.783 34.7227 192.257 34.6004 192.685 34.3558C193.123 34.101 193.47 33.7392 193.725 33.2704C193.979 32.7913 194.107 32.2359 194.107 31.604ZM205.508 31.2982C205.508 31.5632 205.493 31.8435 205.462 32.1391H198.766C198.817 32.9646 199.097 33.6118 199.607 34.0806C200.127 34.5392 200.754 34.7685 201.487 34.7685C202.089 34.7685 202.588 34.631 202.986 34.3558C203.393 34.0704 203.679 33.6933 203.842 33.2245H205.34C205.116 34.0296 204.667 34.687 203.995 35.1966C203.322 35.696 202.486 35.9457 201.487 35.9457C200.692 35.9457 199.979 35.7673 199.347 35.4106C198.725 35.0539 198.236 34.5494 197.879 33.8971C197.523 33.2347 197.344 32.4703 197.344 31.604C197.344 30.7377 197.518 29.9784 197.864 29.3261C198.211 28.6739 198.695 28.1745 199.317 27.8279C199.948 27.4712 200.672 27.2929 201.487 27.2929C202.282 27.2929 202.986 27.4661 203.597 27.8127C204.209 28.1592 204.677 28.6382 205.004 29.2497C205.34 29.851 205.508 30.5339 205.508 31.2982ZM204.071 31.0078C204.071 30.4778 203.954 30.0243 203.719 29.6472C203.485 29.2599 203.164 28.9694 202.756 28.7758C202.359 28.5719 201.915 28.47 201.426 28.47C200.723 28.47 200.122 28.6942 199.622 29.1427C199.133 29.5911 198.853 30.2128 198.781 31.0078H204.071ZM210.31 35.9457C209.668 35.9457 209.092 35.8387 208.583 35.6247C208.073 35.4004 207.67 35.0947 207.375 34.7074C207.079 34.3099 206.916 33.8564 206.886 33.3468H208.323C208.364 33.7647 208.557 34.1061 208.904 34.3711C209.26 34.6361 209.724 34.7685 210.295 34.7685C210.825 34.7685 211.243 34.6513 211.548 34.4169C211.854 34.1825 212.007 33.887 212.007 33.5302C212.007 33.1633 211.844 32.8933 211.518 32.72C211.192 32.5365 210.687 32.3582 210.004 32.1849C209.383 32.0219 208.873 31.8588 208.476 31.6957C208.088 31.5225 207.752 31.2728 207.467 30.9466C207.191 30.6103 207.054 30.1721 207.054 29.6319C207.054 29.2038 207.181 28.8114 207.436 28.4547C207.691 28.098 208.053 27.8177 208.521 27.6139C208.99 27.3999 209.525 27.2929 210.127 27.2929C211.054 27.2929 211.803 27.5273 212.374 27.9961C212.945 28.4649 213.25 29.107 213.291 29.9224H211.9C211.869 29.4841 211.691 29.1325 211.365 28.8675C211.049 28.6025 210.621 28.47 210.081 28.47C209.581 28.47 209.184 28.577 208.888 28.7911C208.593 29.0051 208.445 29.2854 208.445 29.6319C208.445 29.9071 208.532 30.1364 208.705 30.3198C208.888 30.4931 209.113 30.6358 209.378 30.7479C209.653 30.8498 210.03 30.967 210.509 31.0995C211.11 31.2626 211.599 31.4256 211.977 31.5887C212.354 31.7416 212.675 31.976 212.94 32.2919C213.215 32.6079 213.357 33.0207 213.368 33.5302C213.368 33.9889 213.24 34.4016 212.985 34.7685C212.731 35.1354 212.369 35.4259 211.9 35.6399C211.441 35.8438 210.911 35.9457 210.31 35.9457Z" fill="black"/>
</svg>
