<svg width="246" height="159" viewBox="0 0 246 159" fill="none" xmlns="http://www.w3.org/2000/svg">
<g filter="url(#filter0_b_302_680)">
<rect width="246" height="158.036" rx="14.3169" fill="black" fill-opacity="0.14"/>
</g>
<g filter="url(#filter1_b_302_680)">
<rect x="20.8721" y="17.8911" width="47.7091" height="43.2364" rx="7.15846" fill="#090B0F"/>
</g>
<path d="M27.0469 86.0146H23.8037L23.7861 84.6523H26.7305C27.2168 84.6523 27.6416 84.5703 28.0049 84.4062C28.3682 84.2422 28.6494 84.0078 28.8486 83.7031C29.0537 83.3926 29.1562 83.0234 29.1562 82.5957C29.1562 82.127 29.0654 81.7461 28.8838 81.4531C28.708 81.1543 28.4355 80.9375 28.0664 80.8027C27.7031 80.6621 27.2402 80.5918 26.6777 80.5918H24.1816V92H22.4854V79.2031H26.6777C27.334 79.2031 27.9199 79.2705 28.4355 79.4053C28.9512 79.5342 29.3877 79.7393 29.7451 80.0205C30.1084 80.2959 30.3838 80.6475 30.5713 81.0752C30.7588 81.5029 30.8525 82.0156 30.8525 82.6133C30.8525 83.1406 30.7178 83.6182 30.4482 84.0459C30.1787 84.4678 29.8037 84.8135 29.3232 85.083C28.8486 85.3525 28.292 85.5254 27.6533 85.6016L27.0469 86.0146ZM26.9678 92H23.1357L24.0938 90.6201H26.9678C27.5068 90.6201 27.9639 90.5264 28.3389 90.3389C28.7197 90.1514 29.0098 89.8877 29.209 89.5479C29.4082 89.2021 29.5078 88.7949 29.5078 88.3262C29.5078 87.8516 29.4229 87.4414 29.2529 87.0957C29.083 86.75 28.8164 86.4834 28.4531 86.2959C28.0898 86.1084 27.6211 86.0146 27.0469 86.0146H24.6299L24.6475 84.6523H27.9521L28.3125 85.1445C28.9277 85.1973 29.4492 85.373 29.877 85.6719C30.3047 85.9648 30.6299 86.3398 30.8525 86.7969C31.0811 87.2539 31.1953 87.7578 31.1953 88.3086C31.1953 89.1055 31.0195 89.7793 30.668 90.3301C30.3223 90.875 29.833 91.291 29.2002 91.5781C28.5674 91.8594 27.8232 92 26.9678 92ZM37.4004 92.1758C36.7383 92.1758 36.1377 92.0645 35.5986 91.8418C35.0654 91.6133 34.6055 91.2939 34.2188 90.8838C33.8379 90.4736 33.5449 89.9873 33.3398 89.4248C33.1348 88.8623 33.0322 88.2471 33.0322 87.5791V87.21C33.0322 86.4365 33.1465 85.748 33.375 85.1445C33.6035 84.5352 33.9141 84.0195 34.3066 83.5977C34.6992 83.1758 35.1445 82.8564 35.6426 82.6396C36.1406 82.4229 36.6562 82.3145 37.1895 82.3145C37.8691 82.3145 38.4551 82.4316 38.9473 82.666C39.4453 82.9004 39.8525 83.2285 40.1689 83.6504C40.4854 84.0664 40.7197 84.5586 40.8721 85.127C41.0244 85.6895 41.1006 86.3047 41.1006 86.9727V87.7021H33.999V86.375H39.4746V86.252C39.4512 85.8301 39.3633 85.4199 39.2109 85.0215C39.0645 84.623 38.8301 84.2949 38.5078 84.0371C38.1855 83.7793 37.7461 83.6504 37.1895 83.6504C36.8203 83.6504 36.4805 83.7295 36.1699 83.8877C35.8594 84.04 35.5928 84.2686 35.3701 84.5732C35.1475 84.8779 34.9746 85.25 34.8516 85.6895C34.7285 86.1289 34.667 86.6357 34.667 87.21V87.5791C34.667 88.0303 34.7285 88.4551 34.8516 88.8535C34.9805 89.2461 35.165 89.5918 35.4053 89.8906C35.6514 90.1895 35.9473 90.4238 36.293 90.5938C36.6445 90.7637 37.043 90.8486 37.4883 90.8486C38.0625 90.8486 38.5488 90.7314 38.9473 90.4971C39.3457 90.2627 39.6943 89.9492 39.9932 89.5566L40.9775 90.3389C40.7725 90.6494 40.5117 90.9453 40.1953 91.2266C39.8789 91.5078 39.4893 91.7363 39.0264 91.9121C38.5693 92.0879 38.0273 92.1758 37.4004 92.1758ZM48.5361 89.4775C48.5361 89.2432 48.4834 89.0264 48.3779 88.8271C48.2783 88.6221 48.0703 88.4375 47.7539 88.2734C47.4434 88.1035 46.9746 87.957 46.3477 87.834C45.8203 87.7227 45.3428 87.5908 44.915 87.4385C44.4932 87.2861 44.1328 87.1016 43.834 86.8848C43.541 86.668 43.3154 86.4131 43.1572 86.1201C42.999 85.8271 42.9199 85.4844 42.9199 85.0918C42.9199 84.7168 43.002 84.3623 43.166 84.0283C43.3359 83.6943 43.5732 83.3984 43.8779 83.1406C44.1885 82.8828 44.5605 82.6807 44.9941 82.5342C45.4277 82.3877 45.9111 82.3145 46.4443 82.3145C47.2061 82.3145 47.8564 82.4492 48.3955 82.7188C48.9346 82.9883 49.3477 83.3486 49.6348 83.7998C49.9219 84.2451 50.0654 84.7402 50.0654 85.2852H48.4395C48.4395 85.0215 48.3604 84.7666 48.2021 84.5205C48.0498 84.2686 47.8242 84.0605 47.5254 83.8965C47.2324 83.7324 46.8721 83.6504 46.4443 83.6504C45.9932 83.6504 45.627 83.7207 45.3457 83.8613C45.0703 83.9961 44.8682 84.1689 44.7393 84.3799C44.6162 84.5908 44.5547 84.8135 44.5547 85.0479C44.5547 85.2236 44.584 85.3818 44.6426 85.5225C44.707 85.6572 44.8184 85.7832 44.9766 85.9004C45.1348 86.0117 45.3574 86.1172 45.6445 86.2168C45.9316 86.3164 46.2979 86.416 46.7432 86.5156C47.5225 86.6914 48.1641 86.9023 48.668 87.1484C49.1719 87.3945 49.5469 87.6963 49.793 88.0537C50.0391 88.4111 50.1621 88.8447 50.1621 89.3545C50.1621 89.7705 50.0742 90.1514 49.8984 90.4971C49.7285 90.8428 49.4795 91.1416 49.1514 91.3936C48.8291 91.6396 48.4424 91.833 47.9912 91.9736C47.5459 92.1084 47.0449 92.1758 46.4883 92.1758C45.6504 92.1758 44.9414 92.0264 44.3613 91.7275C43.7812 91.4287 43.3418 91.042 43.043 90.5674C42.7441 90.0928 42.5947 89.5918 42.5947 89.0645H44.2295C44.2529 89.5098 44.3818 89.8643 44.6162 90.1279C44.8506 90.3857 45.1377 90.5703 45.4775 90.6816C45.8174 90.7871 46.1543 90.8398 46.4883 90.8398C46.9336 90.8398 47.3057 90.7812 47.6045 90.6641C47.9092 90.5469 48.1406 90.3857 48.2988 90.1807C48.457 89.9756 48.5361 89.7412 48.5361 89.4775ZM56.2793 82.4902V83.7383H51.1377V82.4902H56.2793ZM52.8779 80.1787H54.5039V89.6445C54.5039 89.9668 54.5537 90.21 54.6533 90.374C54.7529 90.5381 54.8818 90.6465 55.04 90.6992C55.1982 90.752 55.3682 90.7783 55.5498 90.7783C55.6846 90.7783 55.8252 90.7666 55.9717 90.7432C56.124 90.7139 56.2383 90.6904 56.3145 90.6729L56.3232 92C56.1943 92.041 56.0244 92.0791 55.8135 92.1143C55.6084 92.1553 55.3594 92.1758 55.0664 92.1758C54.668 92.1758 54.3018 92.0967 53.9678 91.9385C53.6338 91.7803 53.3672 91.5166 53.168 91.1475C52.9746 90.7725 52.8779 90.2686 52.8779 89.6357V80.1787ZM69.7178 88.7656C69.7178 88.4668 69.6709 88.2031 69.5771 87.9746C69.4893 87.7402 69.3311 87.5293 69.1025 87.3418C68.8799 87.1543 68.5693 86.9756 68.1709 86.8057C67.7783 86.6357 67.2803 86.4629 66.6768 86.2871C66.0439 86.0996 65.4727 85.8916 64.9629 85.6631C64.4531 85.4287 64.0166 85.1621 63.6533 84.8633C63.29 84.5645 63.0117 84.2217 62.8184 83.835C62.625 83.4482 62.5283 83.0059 62.5283 82.5078C62.5283 82.0098 62.6309 81.5498 62.8359 81.1279C63.041 80.7061 63.334 80.3398 63.7148 80.0293C64.1016 79.7129 64.5615 79.4668 65.0947 79.291C65.6279 79.1152 66.2227 79.0273 66.8789 79.0273C67.8398 79.0273 68.6543 79.2119 69.3223 79.5811C69.9961 79.9443 70.5088 80.4219 70.8604 81.0137C71.2119 81.5996 71.3877 82.2266 71.3877 82.8945H69.7002C69.7002 82.4141 69.5977 81.9893 69.3926 81.6201C69.1875 81.2451 68.877 80.9521 68.4609 80.7412C68.0449 80.5244 67.5176 80.416 66.8789 80.416C66.2754 80.416 65.7773 80.5068 65.3848 80.6885C64.9922 80.8701 64.6992 81.1162 64.5059 81.4268C64.3184 81.7373 64.2246 82.0918 64.2246 82.4902C64.2246 82.7598 64.2803 83.0059 64.3916 83.2285C64.5088 83.4453 64.6875 83.6475 64.9277 83.835C65.1738 84.0225 65.4844 84.1953 65.8594 84.3535C66.2402 84.5117 66.6943 84.6641 67.2217 84.8105C67.9482 85.0156 68.5752 85.2441 69.1025 85.4961C69.6299 85.748 70.0635 86.0322 70.4033 86.3486C70.749 86.6592 71.0039 87.0137 71.168 87.4121C71.3379 87.8047 71.4229 88.25 71.4229 88.748C71.4229 89.2695 71.3174 89.7412 71.1064 90.1631C70.8955 90.585 70.5938 90.9453 70.2012 91.2441C69.8086 91.543 69.3369 91.7744 68.7861 91.9385C68.2412 92.0967 67.6318 92.1758 66.958 92.1758C66.3662 92.1758 65.7832 92.0938 65.209 91.9297C64.6406 91.7656 64.1221 91.5195 63.6533 91.1914C63.1904 90.8633 62.8184 90.459 62.5371 89.9785C62.2617 89.4922 62.124 88.9297 62.124 88.291H63.8115C63.8115 88.7305 63.8965 89.1084 64.0664 89.4248C64.2363 89.7354 64.4678 89.9932 64.7607 90.1982C65.0596 90.4033 65.3965 90.5557 65.7715 90.6553C66.1523 90.749 66.5479 90.7959 66.958 90.7959C67.5498 90.7959 68.0508 90.7139 68.4609 90.5498C68.8711 90.3857 69.1816 90.1514 69.3926 89.8467C69.6094 89.542 69.7178 89.1816 69.7178 88.7656ZM77.3203 82.4902V83.7383H72.1787V82.4902H77.3203ZM73.9189 80.1787H75.5449V89.6445C75.5449 89.9668 75.5947 90.21 75.6943 90.374C75.7939 90.5381 75.9229 90.6465 76.0811 90.6992C76.2393 90.752 76.4092 90.7783 76.5908 90.7783C76.7256 90.7783 76.8662 90.7666 77.0127 90.7432C77.165 90.7139 77.2793 90.6904 77.3555 90.6729L77.3643 92C77.2354 92.041 77.0654 92.0791 76.8545 92.1143C76.6494 92.1553 76.4004 92.1758 76.1074 92.1758C75.709 92.1758 75.3428 92.0967 75.0088 91.9385C74.6748 91.7803 74.4082 91.5166 74.209 91.1475C74.0156 90.7725 73.9189 90.2686 73.9189 89.6357V80.1787ZM78.6211 87.3506V87.1484C78.6211 86.4629 78.7207 85.8271 78.9199 85.2412C79.1191 84.6494 79.4062 84.1367 79.7812 83.7031C80.1562 83.2637 80.6104 82.9238 81.1436 82.6836C81.6768 82.4375 82.2744 82.3145 82.9365 82.3145C83.6045 82.3145 84.2051 82.4375 84.7383 82.6836C85.2773 82.9238 85.7344 83.2637 86.1094 83.7031C86.4902 84.1367 86.7803 84.6494 86.9795 85.2412C87.1787 85.8271 87.2783 86.4629 87.2783 87.1484V87.3506C87.2783 88.0361 87.1787 88.6719 86.9795 89.2578C86.7803 89.8438 86.4902 90.3564 86.1094 90.7959C85.7344 91.2295 85.2803 91.5693 84.7471 91.8154C84.2197 92.0557 83.6221 92.1758 82.9541 92.1758C82.2861 92.1758 81.6855 92.0557 81.1523 91.8154C80.6191 91.5693 80.1621 91.2295 79.7812 90.7959C79.4062 90.3564 79.1191 89.8438 78.9199 89.2578C78.7207 88.6719 78.6211 88.0361 78.6211 87.3506ZM80.2471 87.1484V87.3506C80.2471 87.8252 80.3027 88.2734 80.4141 88.6953C80.5254 89.1113 80.6924 89.4805 80.915 89.8027C81.1436 90.125 81.4277 90.3799 81.7676 90.5674C82.1074 90.749 82.5029 90.8398 82.9541 90.8398C83.3994 90.8398 83.7891 90.749 84.123 90.5674C84.4629 90.3799 84.7441 90.125 84.9668 89.8027C85.1895 89.4805 85.3564 89.1113 85.4678 88.6953C85.585 88.2734 85.6436 87.8252 85.6436 87.3506V87.1484C85.6436 86.6797 85.585 86.2373 85.4678 85.8213C85.3564 85.3994 85.1865 85.0273 84.958 84.7051C84.7354 84.377 84.4541 84.1191 84.1143 83.9316C83.7803 83.7441 83.3877 83.6504 82.9365 83.6504C82.4912 83.6504 82.0986 83.7441 81.7588 83.9316C81.4248 84.1191 81.1436 84.377 80.915 84.7051C80.6924 85.0273 80.5254 85.3994 80.4141 85.8213C80.3027 86.2373 80.2471 86.6797 80.2471 87.1484ZM93.123 90.8398C93.5098 90.8398 93.8672 90.7607 94.1953 90.6025C94.5234 90.4443 94.793 90.2275 95.0039 89.9521C95.2148 89.6709 95.335 89.3516 95.3643 88.9941H96.9111C96.8818 89.5566 96.6914 90.0811 96.3398 90.5674C95.9941 91.0479 95.54 91.4375 94.9775 91.7363C94.415 92.0293 93.7969 92.1758 93.123 92.1758C92.4082 92.1758 91.7842 92.0498 91.251 91.7979C90.7236 91.5459 90.2842 91.2002 89.9326 90.7607C89.5869 90.3213 89.3262 89.8174 89.1504 89.249C88.9805 88.6748 88.8955 88.0684 88.8955 87.4297V87.0605C88.8955 86.4219 88.9805 85.8184 89.1504 85.25C89.3262 84.6758 89.5869 84.1689 89.9326 83.7295C90.2842 83.29 90.7236 82.9443 91.251 82.6924C91.7842 82.4404 92.4082 82.3145 93.123 82.3145C93.8672 82.3145 94.5176 82.4668 95.0742 82.7715C95.6309 83.0703 96.0674 83.4805 96.3838 84.002C96.7061 84.5176 96.8818 85.1035 96.9111 85.7598H95.3643C95.335 85.3672 95.2236 85.0127 95.0303 84.6963C94.8428 84.3799 94.585 84.1279 94.2568 83.9404C93.9346 83.7471 93.5566 83.6504 93.123 83.6504C92.625 83.6504 92.2061 83.75 91.8662 83.9492C91.5322 84.1426 91.2656 84.4062 91.0664 84.7402C90.873 85.0684 90.7324 85.4346 90.6445 85.8389C90.5625 86.2373 90.5215 86.6445 90.5215 87.0605V87.4297C90.5215 87.8457 90.5625 88.2559 90.6445 88.6602C90.7266 89.0645 90.8643 89.4307 91.0576 89.7588C91.2568 90.0869 91.5234 90.3506 91.8574 90.5498C92.1973 90.7432 92.6191 90.8398 93.123 90.8398ZM100.374 78.5V92H98.7393V78.5H100.374ZM106.184 82.4902L102.035 86.9287L99.7148 89.3369L99.583 87.6055L101.244 85.6191L104.197 82.4902H106.184ZM104.698 92L101.306 87.4648L102.149 86.0146L106.614 92H104.698ZM117.293 86.9814H113.874V85.6016H117.293C117.955 85.6016 118.491 85.4961 118.901 85.2852C119.312 85.0742 119.61 84.7812 119.798 84.4062C119.991 84.0312 120.088 83.6035 120.088 83.123C120.088 82.6836 119.991 82.2705 119.798 81.8838C119.61 81.4971 119.312 81.1865 118.901 80.9521C118.491 80.7119 117.955 80.5918 117.293 80.5918H114.27V92H112.573V79.2031H117.293C118.26 79.2031 119.077 79.3701 119.745 79.7041C120.413 80.0381 120.92 80.501 121.266 81.0928C121.611 81.6787 121.784 82.3496 121.784 83.1055C121.784 83.9258 121.611 84.626 121.266 85.2061C120.92 85.7861 120.413 86.2285 119.745 86.5332C119.077 86.832 118.26 86.9814 117.293 86.9814ZM125.309 78.5V92H123.683V78.5H125.309ZM124.922 86.8848L124.245 86.8584C124.251 86.208 124.348 85.6074 124.535 85.0566C124.723 84.5 124.986 84.0166 125.326 83.6064C125.666 83.1963 126.07 82.8799 126.539 82.6572C127.014 82.4287 127.538 82.3145 128.112 82.3145C128.581 82.3145 129.003 82.3789 129.378 82.5078C129.753 82.6309 130.072 82.8301 130.336 83.1055C130.605 83.3809 130.811 83.7383 130.951 84.1777C131.092 84.6113 131.162 85.1416 131.162 85.7686V92H129.527V85.751C129.527 85.2529 129.454 84.8545 129.308 84.5557C129.161 84.251 128.947 84.0312 128.666 83.8965C128.385 83.7559 128.039 83.6855 127.629 83.6855C127.225 83.6855 126.855 83.7705 126.521 83.9404C126.193 84.1104 125.909 84.3447 125.669 84.6436C125.435 84.9424 125.25 85.2852 125.115 85.6719C124.986 86.0527 124.922 86.457 124.922 86.8848ZM133.166 87.3506V87.1484C133.166 86.4629 133.266 85.8271 133.465 85.2412C133.664 84.6494 133.951 84.1367 134.326 83.7031C134.701 83.2637 135.155 82.9238 135.688 82.6836C136.222 82.4375 136.819 82.3145 137.481 82.3145C138.149 82.3145 138.75 82.4375 139.283 82.6836C139.822 82.9238 140.279 83.2637 140.654 83.7031C141.035 84.1367 141.325 84.6494 141.524 85.2412C141.724 85.8271 141.823 86.4629 141.823 87.1484V87.3506C141.823 88.0361 141.724 88.6719 141.524 89.2578C141.325 89.8438 141.035 90.3564 140.654 90.7959C140.279 91.2295 139.825 91.5693 139.292 91.8154C138.765 92.0557 138.167 92.1758 137.499 92.1758C136.831 92.1758 136.23 92.0557 135.697 91.8154C135.164 91.5693 134.707 91.2295 134.326 90.7959C133.951 90.3564 133.664 89.8438 133.465 89.2578C133.266 88.6719 133.166 88.0361 133.166 87.3506ZM134.792 87.1484V87.3506C134.792 87.8252 134.848 88.2734 134.959 88.6953C135.07 89.1113 135.237 89.4805 135.46 89.8027C135.688 90.125 135.973 90.3799 136.312 90.5674C136.652 90.749 137.048 90.8398 137.499 90.8398C137.944 90.8398 138.334 90.749 138.668 90.5674C139.008 90.3799 139.289 90.125 139.512 89.8027C139.734 89.4805 139.901 89.1113 140.013 88.6953C140.13 88.2734 140.188 87.8252 140.188 87.3506V87.1484C140.188 86.6797 140.13 86.2373 140.013 85.8213C139.901 85.3994 139.731 85.0273 139.503 84.7051C139.28 84.377 138.999 84.1191 138.659 83.9316C138.325 83.7441 137.933 83.6504 137.481 83.6504C137.036 83.6504 136.644 83.7441 136.304 83.9316C135.97 84.1191 135.688 84.377 135.46 84.7051C135.237 85.0273 135.07 85.3994 134.959 85.8213C134.848 86.2373 134.792 86.6797 134.792 87.1484ZM147.844 82.4902V83.7383H142.702V82.4902H147.844ZM144.442 80.1787H146.068V89.6445C146.068 89.9668 146.118 90.21 146.218 90.374C146.317 90.5381 146.446 90.6465 146.604 90.6992C146.763 90.752 146.933 90.7783 147.114 90.7783C147.249 90.7783 147.39 90.7666 147.536 90.7432C147.688 90.7139 147.803 90.6904 147.879 90.6729L147.888 92C147.759 92.041 147.589 92.0791 147.378 92.1143C147.173 92.1553 146.924 92.1758 146.631 92.1758C146.232 92.1758 145.866 92.0967 145.532 91.9385C145.198 91.7803 144.932 91.5166 144.732 91.1475C144.539 90.7725 144.442 90.2686 144.442 89.6357V80.1787ZM149.145 87.3506V87.1484C149.145 86.4629 149.244 85.8271 149.443 85.2412C149.643 84.6494 149.93 84.1367 150.305 83.7031C150.68 83.2637 151.134 82.9238 151.667 82.6836C152.2 82.4375 152.798 82.3145 153.46 82.3145C154.128 82.3145 154.729 82.4375 155.262 82.6836C155.801 82.9238 156.258 83.2637 156.633 83.7031C157.014 84.1367 157.304 84.6494 157.503 85.2412C157.702 85.8271 157.802 86.4629 157.802 87.1484V87.3506C157.802 88.0361 157.702 88.6719 157.503 89.2578C157.304 89.8438 157.014 90.3564 156.633 90.7959C156.258 91.2295 155.804 91.5693 155.271 91.8154C154.743 92.0557 154.146 92.1758 153.478 92.1758C152.81 92.1758 152.209 92.0557 151.676 91.8154C151.143 91.5693 150.686 91.2295 150.305 90.7959C149.93 90.3564 149.643 89.8438 149.443 89.2578C149.244 88.6719 149.145 88.0361 149.145 87.3506ZM150.771 87.1484V87.3506C150.771 87.8252 150.826 88.2734 150.938 88.6953C151.049 89.1113 151.216 89.4805 151.438 89.8027C151.667 90.125 151.951 90.3799 152.291 90.5674C152.631 90.749 153.026 90.8398 153.478 90.8398C153.923 90.8398 154.312 90.749 154.646 90.5674C154.986 90.3799 155.268 90.125 155.49 89.8027C155.713 89.4805 155.88 89.1113 155.991 88.6953C156.108 88.2734 156.167 87.8252 156.167 87.3506V87.1484C156.167 86.6797 156.108 86.2373 155.991 85.8213C155.88 85.3994 155.71 85.0273 155.481 84.7051C155.259 84.377 154.978 84.1191 154.638 83.9316C154.304 83.7441 153.911 83.6504 153.46 83.6504C153.015 83.6504 152.622 83.7441 152.282 83.9316C151.948 84.1191 151.667 84.377 151.438 84.7051C151.216 85.0273 151.049 85.3994 150.938 85.8213C150.826 86.2373 150.771 86.6797 150.771 87.1484ZM165.378 89.4775C165.378 89.2432 165.325 89.0264 165.22 88.8271C165.12 88.6221 164.912 88.4375 164.596 88.2734C164.285 88.1035 163.816 87.957 163.189 87.834C162.662 87.7227 162.185 87.5908 161.757 87.4385C161.335 87.2861 160.975 87.1016 160.676 86.8848C160.383 86.668 160.157 86.4131 159.999 86.1201C159.841 85.8271 159.762 85.4844 159.762 85.0918C159.762 84.7168 159.844 84.3623 160.008 84.0283C160.178 83.6943 160.415 83.3984 160.72 83.1406C161.03 82.8828 161.402 82.6807 161.836 82.5342C162.27 82.3877 162.753 82.3145 163.286 82.3145C164.048 82.3145 164.698 82.4492 165.237 82.7188C165.776 82.9883 166.189 83.3486 166.477 83.7998C166.764 84.2451 166.907 84.7402 166.907 85.2852H165.281C165.281 85.0215 165.202 84.7666 165.044 84.5205C164.892 84.2686 164.666 84.0605 164.367 83.8965C164.074 83.7324 163.714 83.6504 163.286 83.6504C162.835 83.6504 162.469 83.7207 162.188 83.8613C161.912 83.9961 161.71 84.1689 161.581 84.3799C161.458 84.5908 161.396 84.8135 161.396 85.0479C161.396 85.2236 161.426 85.3818 161.484 85.5225C161.549 85.6572 161.66 85.7832 161.818 85.9004C161.977 86.0117 162.199 86.1172 162.486 86.2168C162.773 86.3164 163.14 86.416 163.585 86.5156C164.364 86.6914 165.006 86.9023 165.51 87.1484C166.014 87.3945 166.389 87.6963 166.635 88.0537C166.881 88.4111 167.004 88.8447 167.004 89.3545C167.004 89.7705 166.916 90.1514 166.74 90.4971C166.57 90.8428 166.321 91.1416 165.993 91.3936C165.671 91.6396 165.284 91.833 164.833 91.9736C164.388 92.1084 163.887 92.1758 163.33 92.1758C162.492 92.1758 161.783 92.0264 161.203 91.7275C160.623 91.4287 160.184 91.042 159.885 90.5674C159.586 90.0928 159.437 89.5918 159.437 89.0645H161.071C161.095 89.5098 161.224 89.8643 161.458 90.1279C161.692 90.3857 161.979 90.5703 162.319 90.6816C162.659 90.7871 162.996 90.8398 163.33 90.8398C163.775 90.8398 164.147 90.7812 164.446 90.6641C164.751 90.5469 164.982 90.3857 165.141 90.1807C165.299 89.9756 165.378 89.7412 165.378 89.4775ZM179.212 90.374V85.4785C179.212 85.1035 179.136 84.7783 178.983 84.5029C178.837 84.2217 178.614 84.0049 178.315 83.8525C178.017 83.7002 177.647 83.624 177.208 83.624C176.798 83.624 176.438 83.6943 176.127 83.835C175.822 83.9756 175.582 84.1602 175.406 84.3887C175.236 84.6172 175.151 84.8633 175.151 85.127H173.525C173.525 84.7871 173.613 84.4502 173.789 84.1162C173.965 83.7822 174.217 83.4805 174.545 83.2109C174.879 82.9355 175.277 82.7188 175.74 82.5605C176.209 82.3965 176.73 82.3145 177.305 82.3145C177.996 82.3145 178.605 82.4316 179.133 82.666C179.666 82.9004 180.082 83.2549 180.381 83.7295C180.686 84.1982 180.838 84.7871 180.838 85.4961V89.9258C180.838 90.2422 180.864 90.5791 180.917 90.9365C180.976 91.2939 181.061 91.6016 181.172 91.8594V92H179.476C179.394 91.8125 179.329 91.5635 179.282 91.2529C179.235 90.9365 179.212 90.6436 179.212 90.374ZM179.493 86.2344L179.511 87.377H177.867C177.404 87.377 176.991 87.415 176.628 87.4912C176.265 87.5615 175.96 87.6699 175.714 87.8164C175.468 87.9629 175.28 88.1475 175.151 88.3701C175.022 88.5869 174.958 88.8418 174.958 89.1348C174.958 89.4336 175.025 89.7061 175.16 89.9521C175.295 90.1982 175.497 90.3945 175.767 90.541C176.042 90.6816 176.379 90.752 176.777 90.752C177.275 90.752 177.715 90.6465 178.096 90.4355C178.477 90.2246 178.778 89.9668 179.001 89.6621C179.229 89.3574 179.353 89.0615 179.37 88.7744L180.064 89.5566C180.023 89.8027 179.912 90.0752 179.73 90.374C179.549 90.6729 179.306 90.96 179.001 91.2354C178.702 91.5049 178.345 91.7305 177.929 91.9121C177.519 92.0879 177.056 92.1758 176.54 92.1758C175.896 92.1758 175.33 92.0498 174.844 91.7979C174.363 91.5459 173.988 91.209 173.719 90.7871C173.455 90.3594 173.323 89.8818 173.323 89.3545C173.323 88.8447 173.423 88.3965 173.622 88.0098C173.821 87.6172 174.108 87.292 174.483 87.0342C174.858 86.7705 175.31 86.5713 175.837 86.4365C176.364 86.3018 176.953 86.2344 177.604 86.2344H179.493ZM185.021 84.5205V92H183.396V82.4902H184.934L185.021 84.5205ZM184.635 86.8848L183.958 86.8584C183.964 86.208 184.061 85.6074 184.248 85.0566C184.436 84.5 184.699 84.0166 185.039 83.6064C185.379 83.1963 185.783 82.8799 186.252 82.6572C186.727 82.4287 187.251 82.3145 187.825 82.3145C188.294 82.3145 188.716 82.3789 189.091 82.5078C189.466 82.6309 189.785 82.8301 190.049 83.1055C190.318 83.3809 190.523 83.7383 190.664 84.1777C190.805 84.6113 190.875 85.1416 190.875 85.7686V92H189.24V85.751C189.24 85.2529 189.167 84.8545 189.021 84.5557C188.874 84.251 188.66 84.0312 188.379 83.8965C188.098 83.7559 187.752 83.6855 187.342 83.6855C186.938 83.6855 186.568 83.7705 186.234 83.9404C185.906 84.1104 185.622 84.3447 185.382 84.6436C185.147 84.9424 184.963 85.2852 184.828 85.6719C184.699 86.0527 184.635 86.457 184.635 86.8848ZM199.339 90.1543V78.5H200.974V92H199.479L199.339 90.1543ZM192.94 87.3506V87.166C192.94 86.4395 193.028 85.7803 193.204 85.1885C193.386 84.5908 193.641 84.0781 193.969 83.6504C194.303 83.2227 194.698 82.8945 195.155 82.666C195.618 82.4316 196.134 82.3145 196.702 82.3145C197.3 82.3145 197.821 82.4199 198.267 82.6309C198.718 82.8359 199.099 83.1377 199.409 83.5361C199.726 83.9287 199.975 84.4033 200.156 84.96C200.338 85.5166 200.464 86.1465 200.534 86.8496V87.6582C200.47 88.3555 200.344 88.9824 200.156 89.5391C199.975 90.0957 199.726 90.5703 199.409 90.9629C199.099 91.3555 198.718 91.6572 198.267 91.8682C197.815 92.0732 197.288 92.1758 196.685 92.1758C196.128 92.1758 195.618 92.0557 195.155 91.8154C194.698 91.5752 194.303 91.2383 193.969 90.8047C193.641 90.3711 193.386 89.8613 193.204 89.2754C193.028 88.6836 192.94 88.042 192.94 87.3506ZM194.575 87.166V87.3506C194.575 87.8252 194.622 88.2705 194.716 88.6865C194.815 89.1025 194.968 89.4688 195.173 89.7852C195.378 90.1016 195.639 90.3506 195.955 90.5322C196.271 90.708 196.649 90.7959 197.089 90.7959C197.628 90.7959 198.07 90.6816 198.416 90.4531C198.768 90.2246 199.049 89.9229 199.26 89.5479C199.471 89.1729 199.635 88.7656 199.752 88.3262V86.208C199.682 85.8857 199.579 85.5752 199.444 85.2764C199.315 84.9717 199.146 84.7021 198.935 84.4678C198.729 84.2275 198.475 84.0371 198.17 83.8965C197.871 83.7559 197.517 83.6855 197.106 83.6855C196.661 83.6855 196.277 83.7793 195.955 83.9668C195.639 84.1484 195.378 84.4004 195.173 84.7227C194.968 85.0391 194.815 85.4082 194.716 85.8301C194.622 86.2461 194.575 86.6914 194.575 87.166ZM26.6162 112.058L30.3867 101.203H32.2236L27.4863 114H26.1768L26.6162 112.058ZM23.0918 101.203L26.8271 112.058L27.293 114H25.9834L21.2549 101.203H23.0918ZM35.4668 104.49V114H33.832V104.49H35.4668ZM33.709 101.968C33.709 101.704 33.7881 101.481 33.9463 101.3C34.1104 101.118 34.3506 101.027 34.667 101.027C34.9775 101.027 35.2148 101.118 35.3789 101.3C35.5488 101.481 35.6338 101.704 35.6338 101.968C35.6338 102.22 35.5488 102.437 35.3789 102.618C35.2148 102.794 34.9775 102.882 34.667 102.882C34.3506 102.882 34.1104 102.794 33.9463 102.618C33.7881 102.437 33.709 102.22 33.709 101.968ZM44.0713 112.154V100.5H45.7061V114H44.2119L44.0713 112.154ZM37.6729 109.351V109.166C37.6729 108.439 37.7607 107.78 37.9365 107.188C38.1182 106.591 38.373 106.078 38.7012 105.65C39.0352 105.223 39.4307 104.895 39.8877 104.666C40.3506 104.432 40.8662 104.314 41.4346 104.314C42.0322 104.314 42.5537 104.42 42.999 104.631C43.4502 104.836 43.8311 105.138 44.1416 105.536C44.458 105.929 44.707 106.403 44.8887 106.96C45.0703 107.517 45.1963 108.146 45.2666 108.85V109.658C45.2021 110.355 45.0762 110.982 44.8887 111.539C44.707 112.096 44.458 112.57 44.1416 112.963C43.8311 113.355 43.4502 113.657 42.999 113.868C42.5479 114.073 42.0205 114.176 41.417 114.176C40.8604 114.176 40.3506 114.056 39.8877 113.815C39.4307 113.575 39.0352 113.238 38.7012 112.805C38.373 112.371 38.1182 111.861 37.9365 111.275C37.7607 110.684 37.6729 110.042 37.6729 109.351ZM39.3076 109.166V109.351C39.3076 109.825 39.3545 110.271 39.4482 110.687C39.5479 111.103 39.7002 111.469 39.9053 111.785C40.1104 112.102 40.3711 112.351 40.6875 112.532C41.0039 112.708 41.3818 112.796 41.8213 112.796C42.3604 112.796 42.8027 112.682 43.1484 112.453C43.5 112.225 43.7812 111.923 43.9922 111.548C44.2031 111.173 44.3672 110.766 44.4844 110.326V108.208C44.4141 107.886 44.3115 107.575 44.1768 107.276C44.0479 106.972 43.8779 106.702 43.667 106.468C43.4619 106.228 43.207 106.037 42.9023 105.896C42.6035 105.756 42.249 105.686 41.8389 105.686C41.3936 105.686 41.0098 105.779 40.6875 105.967C40.3711 106.148 40.1104 106.4 39.9053 106.723C39.7002 107.039 39.5479 107.408 39.4482 107.83C39.3545 108.246 39.3076 108.691 39.3076 109.166ZM52.1836 114.176C51.5215 114.176 50.9209 114.064 50.3818 113.842C49.8486 113.613 49.3887 113.294 49.002 112.884C48.6211 112.474 48.3281 111.987 48.123 111.425C47.918 110.862 47.8154 110.247 47.8154 109.579V109.21C47.8154 108.437 47.9297 107.748 48.1582 107.145C48.3867 106.535 48.6973 106.02 49.0898 105.598C49.4824 105.176 49.9277 104.856 50.4258 104.64C50.9238 104.423 51.4395 104.314 51.9727 104.314C52.6523 104.314 53.2383 104.432 53.7305 104.666C54.2285 104.9 54.6357 105.229 54.9521 105.65C55.2686 106.066 55.5029 106.559 55.6553 107.127C55.8076 107.689 55.8838 108.305 55.8838 108.973V109.702H48.7822V108.375H54.2578V108.252C54.2344 107.83 54.1465 107.42 53.9941 107.021C53.8477 106.623 53.6133 106.295 53.291 106.037C52.9688 105.779 52.5293 105.65 51.9727 105.65C51.6035 105.65 51.2637 105.729 50.9531 105.888C50.6426 106.04 50.376 106.269 50.1533 106.573C49.9307 106.878 49.7578 107.25 49.6348 107.689C49.5117 108.129 49.4502 108.636 49.4502 109.21V109.579C49.4502 110.03 49.5117 110.455 49.6348 110.854C49.7637 111.246 49.9482 111.592 50.1885 111.891C50.4346 112.189 50.7305 112.424 51.0762 112.594C51.4277 112.764 51.8262 112.849 52.2715 112.849C52.8457 112.849 53.332 112.731 53.7305 112.497C54.1289 112.263 54.4775 111.949 54.7764 111.557L55.7607 112.339C55.5557 112.649 55.2949 112.945 54.9785 113.227C54.6621 113.508 54.2725 113.736 53.8096 113.912C53.3525 114.088 52.8105 114.176 52.1836 114.176ZM57.3516 109.351V109.148C57.3516 108.463 57.4512 107.827 57.6504 107.241C57.8496 106.649 58.1367 106.137 58.5117 105.703C58.8867 105.264 59.3408 104.924 59.874 104.684C60.4072 104.438 61.0049 104.314 61.667 104.314C62.335 104.314 62.9355 104.438 63.4688 104.684C64.0078 104.924 64.4648 105.264 64.8398 105.703C65.2207 106.137 65.5107 106.649 65.71 107.241C65.9092 107.827 66.0088 108.463 66.0088 109.148V109.351C66.0088 110.036 65.9092 110.672 65.71 111.258C65.5107 111.844 65.2207 112.356 64.8398 112.796C64.4648 113.229 64.0107 113.569 63.4775 113.815C62.9502 114.056 62.3525 114.176 61.6846 114.176C61.0166 114.176 60.416 114.056 59.8828 113.815C59.3496 113.569 58.8926 113.229 58.5117 112.796C58.1367 112.356 57.8496 111.844 57.6504 111.258C57.4512 110.672 57.3516 110.036 57.3516 109.351ZM58.9775 109.148V109.351C58.9775 109.825 59.0332 110.273 59.1445 110.695C59.2559 111.111 59.4229 111.48 59.6455 111.803C59.874 112.125 60.1582 112.38 60.498 112.567C60.8379 112.749 61.2334 112.84 61.6846 112.84C62.1299 112.84 62.5195 112.749 62.8535 112.567C63.1934 112.38 63.4746 112.125 63.6973 111.803C63.9199 111.48 64.0869 111.111 64.1982 110.695C64.3154 110.273 64.374 109.825 64.374 109.351V109.148C64.374 108.68 64.3154 108.237 64.1982 107.821C64.0869 107.399 63.917 107.027 63.6885 106.705C63.4658 106.377 63.1846 106.119 62.8447 105.932C62.5107 105.744 62.1182 105.65 61.667 105.65C61.2217 105.65 60.8291 105.744 60.4893 105.932C60.1553 106.119 59.874 106.377 59.6455 106.705C59.4229 107.027 59.2559 107.399 59.1445 107.821C59.0332 108.237 58.9775 108.68 58.9775 109.148ZM73.585 111.478C73.585 111.243 73.5322 111.026 73.4268 110.827C73.3271 110.622 73.1191 110.438 72.8027 110.273C72.4922 110.104 72.0234 109.957 71.3965 109.834C70.8691 109.723 70.3916 109.591 69.9639 109.438C69.542 109.286 69.1816 109.102 68.8828 108.885C68.5898 108.668 68.3643 108.413 68.2061 108.12C68.0479 107.827 67.9688 107.484 67.9688 107.092C67.9688 106.717 68.0508 106.362 68.2148 106.028C68.3848 105.694 68.6221 105.398 68.9268 105.141C69.2373 104.883 69.6094 104.681 70.043 104.534C70.4766 104.388 70.96 104.314 71.4932 104.314C72.2549 104.314 72.9053 104.449 73.4443 104.719C73.9834 104.988 74.3965 105.349 74.6836 105.8C74.9707 106.245 75.1143 106.74 75.1143 107.285H73.4883C73.4883 107.021 73.4092 106.767 73.251 106.521C73.0986 106.269 72.873 106.061 72.5742 105.896C72.2812 105.732 71.9209 105.65 71.4932 105.65C71.042 105.65 70.6758 105.721 70.3945 105.861C70.1191 105.996 69.917 106.169 69.7881 106.38C69.665 106.591 69.6035 106.813 69.6035 107.048C69.6035 107.224 69.6328 107.382 69.6914 107.522C69.7559 107.657 69.8672 107.783 70.0254 107.9C70.1836 108.012 70.4062 108.117 70.6934 108.217C70.9805 108.316 71.3467 108.416 71.792 108.516C72.5713 108.691 73.2129 108.902 73.7168 109.148C74.2207 109.395 74.5957 109.696 74.8418 110.054C75.0879 110.411 75.2109 110.845 75.2109 111.354C75.2109 111.771 75.123 112.151 74.9473 112.497C74.7773 112.843 74.5283 113.142 74.2002 113.394C73.8779 113.64 73.4912 113.833 73.04 113.974C72.5947 114.108 72.0938 114.176 71.5371 114.176C70.6992 114.176 69.9902 114.026 69.4102 113.728C68.8301 113.429 68.3906 113.042 68.0918 112.567C67.793 112.093 67.6436 111.592 67.6436 111.064H69.2783C69.3018 111.51 69.4307 111.864 69.665 112.128C69.8994 112.386 70.1865 112.57 70.5264 112.682C70.8662 112.787 71.2031 112.84 71.5371 112.84C71.9824 112.84 72.3545 112.781 72.6533 112.664C72.958 112.547 73.1895 112.386 73.3477 112.181C73.5059 111.976 73.585 111.741 73.585 111.478ZM84.2373 114H82.6113V103.488C82.6113 102.803 82.7344 102.226 82.9805 101.757C83.2324 101.282 83.5928 100.925 84.0615 100.685C84.5303 100.438 85.0869 100.315 85.7314 100.315C85.9189 100.315 86.1064 100.327 86.2939 100.351C86.4873 100.374 86.6748 100.409 86.8564 100.456L86.7686 101.783C86.6455 101.754 86.5049 101.733 86.3467 101.722C86.1943 101.71 86.042 101.704 85.8896 101.704C85.5439 101.704 85.2451 101.774 84.9932 101.915C84.7471 102.05 84.5596 102.249 84.4307 102.513C84.3018 102.776 84.2373 103.102 84.2373 103.488V114ZM86.2588 104.49V105.738H81.1084V104.49H86.2588ZM89.6953 105.984V114H88.0693V104.49H89.6514L89.6953 105.984ZM92.666 104.438L92.6572 105.949C92.5225 105.92 92.3936 105.902 92.2705 105.896C92.1533 105.885 92.0186 105.879 91.8662 105.879C91.4912 105.879 91.1602 105.938 90.873 106.055C90.5859 106.172 90.3428 106.336 90.1436 106.547C89.9443 106.758 89.7861 107.01 89.6689 107.303C89.5576 107.59 89.4844 107.906 89.4492 108.252L88.9922 108.516C88.9922 107.941 89.0479 107.402 89.1592 106.898C89.2764 106.395 89.4551 105.949 89.6953 105.562C89.9355 105.17 90.2402 104.865 90.6094 104.648C90.9844 104.426 91.4297 104.314 91.9453 104.314C92.0625 104.314 92.1973 104.329 92.3496 104.358C92.502 104.382 92.6074 104.408 92.666 104.438ZM93.5625 109.351V109.148C93.5625 108.463 93.6621 107.827 93.8613 107.241C94.0605 106.649 94.3477 106.137 94.7227 105.703C95.0977 105.264 95.5518 104.924 96.085 104.684C96.6182 104.438 97.2158 104.314 97.8779 104.314C98.5459 104.314 99.1465 104.438 99.6797 104.684C100.219 104.924 100.676 105.264 101.051 105.703C101.432 106.137 101.722 106.649 101.921 107.241C102.12 107.827 102.22 108.463 102.22 109.148V109.351C102.22 110.036 102.12 110.672 101.921 111.258C101.722 111.844 101.432 112.356 101.051 112.796C100.676 113.229 100.222 113.569 99.6885 113.815C99.1611 114.056 98.5635 114.176 97.8955 114.176C97.2275 114.176 96.627 114.056 96.0938 113.815C95.5605 113.569 95.1035 113.229 94.7227 112.796C94.3477 112.356 94.0605 111.844 93.8613 111.258C93.6621 110.672 93.5625 110.036 93.5625 109.351ZM95.1885 109.148V109.351C95.1885 109.825 95.2441 110.273 95.3555 110.695C95.4668 111.111 95.6338 111.48 95.8564 111.803C96.085 112.125 96.3691 112.38 96.709 112.567C97.0488 112.749 97.4443 112.84 97.8955 112.84C98.3408 112.84 98.7305 112.749 99.0645 112.567C99.4043 112.38 99.6855 112.125 99.9082 111.803C100.131 111.48 100.298 111.111 100.409 110.695C100.526 110.273 100.585 109.825 100.585 109.351V109.148C100.585 108.68 100.526 108.237 100.409 107.821C100.298 107.399 100.128 107.027 99.8994 106.705C99.6768 106.377 99.3955 106.119 99.0557 105.932C98.7217 105.744 98.3291 105.65 97.8779 105.65C97.4326 105.65 97.04 105.744 96.7002 105.932C96.3662 106.119 96.085 106.377 95.8564 106.705C95.6338 107.027 95.4668 107.399 95.3555 107.821C95.2441 108.237 95.1885 108.68 95.1885 109.148ZM105.876 106.38V114H104.241V104.49H105.788L105.876 106.38ZM105.542 108.885L104.786 108.858C104.792 108.208 104.877 107.607 105.041 107.057C105.205 106.5 105.448 106.017 105.771 105.606C106.093 105.196 106.494 104.88 106.975 104.657C107.455 104.429 108.012 104.314 108.645 104.314C109.09 104.314 109.5 104.379 109.875 104.508C110.25 104.631 110.575 104.827 110.851 105.097C111.126 105.366 111.34 105.712 111.492 106.134C111.645 106.556 111.721 107.065 111.721 107.663V114H110.095V107.742C110.095 107.244 110.01 106.846 109.84 106.547C109.676 106.248 109.441 106.031 109.137 105.896C108.832 105.756 108.475 105.686 108.064 105.686C107.584 105.686 107.183 105.771 106.86 105.94C106.538 106.11 106.28 106.345 106.087 106.644C105.894 106.942 105.753 107.285 105.665 107.672C105.583 108.053 105.542 108.457 105.542 108.885ZM111.703 107.988L110.613 108.322C110.619 107.801 110.704 107.3 110.868 106.819C111.038 106.339 111.281 105.911 111.598 105.536C111.92 105.161 112.315 104.865 112.784 104.648C113.253 104.426 113.789 104.314 114.393 104.314C114.902 104.314 115.354 104.382 115.746 104.517C116.145 104.651 116.479 104.859 116.748 105.141C117.023 105.416 117.231 105.771 117.372 106.204C117.513 106.638 117.583 107.153 117.583 107.751V114H115.948V107.733C115.948 107.2 115.863 106.787 115.693 106.494C115.529 106.195 115.295 105.987 114.99 105.87C114.691 105.747 114.334 105.686 113.918 105.686C113.561 105.686 113.244 105.747 112.969 105.87C112.693 105.993 112.462 106.163 112.274 106.38C112.087 106.591 111.943 106.834 111.844 107.109C111.75 107.385 111.703 107.678 111.703 107.988ZM130.116 112.374V107.479C130.116 107.104 130.04 106.778 129.888 106.503C129.741 106.222 129.519 106.005 129.22 105.853C128.921 105.7 128.552 105.624 128.112 105.624C127.702 105.624 127.342 105.694 127.031 105.835C126.727 105.976 126.486 106.16 126.311 106.389C126.141 106.617 126.056 106.863 126.056 107.127H124.43C124.43 106.787 124.518 106.45 124.693 106.116C124.869 105.782 125.121 105.48 125.449 105.211C125.783 104.936 126.182 104.719 126.645 104.561C127.113 104.396 127.635 104.314 128.209 104.314C128.9 104.314 129.51 104.432 130.037 104.666C130.57 104.9 130.986 105.255 131.285 105.729C131.59 106.198 131.742 106.787 131.742 107.496V111.926C131.742 112.242 131.769 112.579 131.821 112.937C131.88 113.294 131.965 113.602 132.076 113.859V114H130.38C130.298 113.812 130.233 113.563 130.187 113.253C130.14 112.937 130.116 112.644 130.116 112.374ZM130.397 108.234L130.415 109.377H128.771C128.309 109.377 127.896 109.415 127.532 109.491C127.169 109.562 126.864 109.67 126.618 109.816C126.372 109.963 126.185 110.147 126.056 110.37C125.927 110.587 125.862 110.842 125.862 111.135C125.862 111.434 125.93 111.706 126.064 111.952C126.199 112.198 126.401 112.395 126.671 112.541C126.946 112.682 127.283 112.752 127.682 112.752C128.18 112.752 128.619 112.646 129 112.436C129.381 112.225 129.683 111.967 129.905 111.662C130.134 111.357 130.257 111.062 130.274 110.774L130.969 111.557C130.928 111.803 130.816 112.075 130.635 112.374C130.453 112.673 130.21 112.96 129.905 113.235C129.606 113.505 129.249 113.73 128.833 113.912C128.423 114.088 127.96 114.176 127.444 114.176C126.8 114.176 126.234 114.05 125.748 113.798C125.268 113.546 124.893 113.209 124.623 112.787C124.359 112.359 124.228 111.882 124.228 111.354C124.228 110.845 124.327 110.396 124.526 110.01C124.726 109.617 125.013 109.292 125.388 109.034C125.763 108.771 126.214 108.571 126.741 108.437C127.269 108.302 127.857 108.234 128.508 108.234H130.397ZM138.105 112.84C138.492 112.84 138.85 112.761 139.178 112.603C139.506 112.444 139.775 112.228 139.986 111.952C140.197 111.671 140.317 111.352 140.347 110.994H141.894C141.864 111.557 141.674 112.081 141.322 112.567C140.977 113.048 140.522 113.438 139.96 113.736C139.397 114.029 138.779 114.176 138.105 114.176C137.391 114.176 136.767 114.05 136.233 113.798C135.706 113.546 135.267 113.2 134.915 112.761C134.569 112.321 134.309 111.817 134.133 111.249C133.963 110.675 133.878 110.068 133.878 109.43V109.061C133.878 108.422 133.963 107.818 134.133 107.25C134.309 106.676 134.569 106.169 134.915 105.729C135.267 105.29 135.706 104.944 136.233 104.692C136.767 104.44 137.391 104.314 138.105 104.314C138.85 104.314 139.5 104.467 140.057 104.771C140.613 105.07 141.05 105.48 141.366 106.002C141.688 106.518 141.864 107.104 141.894 107.76H140.347C140.317 107.367 140.206 107.013 140.013 106.696C139.825 106.38 139.567 106.128 139.239 105.94C138.917 105.747 138.539 105.65 138.105 105.65C137.607 105.65 137.188 105.75 136.849 105.949C136.515 106.143 136.248 106.406 136.049 106.74C135.855 107.068 135.715 107.435 135.627 107.839C135.545 108.237 135.504 108.645 135.504 109.061V109.43C135.504 109.846 135.545 110.256 135.627 110.66C135.709 111.064 135.847 111.431 136.04 111.759C136.239 112.087 136.506 112.351 136.84 112.55C137.18 112.743 137.602 112.84 138.105 112.84ZM145.348 105.984V114H143.722V104.49H145.304L145.348 105.984ZM148.318 104.438L148.31 105.949C148.175 105.92 148.046 105.902 147.923 105.896C147.806 105.885 147.671 105.879 147.519 105.879C147.144 105.879 146.812 105.938 146.525 106.055C146.238 106.172 145.995 106.336 145.796 106.547C145.597 106.758 145.438 107.01 145.321 107.303C145.21 107.59 145.137 107.906 145.102 108.252L144.645 108.516C144.645 107.941 144.7 107.402 144.812 106.898C144.929 106.395 145.107 105.949 145.348 105.562C145.588 105.17 145.893 104.865 146.262 104.648C146.637 104.426 147.082 104.314 147.598 104.314C147.715 104.314 147.85 104.329 148.002 104.358C148.154 104.382 148.26 104.408 148.318 104.438ZM149.215 109.351V109.148C149.215 108.463 149.314 107.827 149.514 107.241C149.713 106.649 150 106.137 150.375 105.703C150.75 105.264 151.204 104.924 151.737 104.684C152.271 104.438 152.868 104.314 153.53 104.314C154.198 104.314 154.799 104.438 155.332 104.684C155.871 104.924 156.328 105.264 156.703 105.703C157.084 106.137 157.374 106.649 157.573 107.241C157.772 107.827 157.872 108.463 157.872 109.148V109.351C157.872 110.036 157.772 110.672 157.573 111.258C157.374 111.844 157.084 112.356 156.703 112.796C156.328 113.229 155.874 113.569 155.341 113.815C154.813 114.056 154.216 114.176 153.548 114.176C152.88 114.176 152.279 114.056 151.746 113.815C151.213 113.569 150.756 113.229 150.375 112.796C150 112.356 149.713 111.844 149.514 111.258C149.314 110.672 149.215 110.036 149.215 109.351ZM150.841 109.148V109.351C150.841 109.825 150.896 110.273 151.008 110.695C151.119 111.111 151.286 111.48 151.509 111.803C151.737 112.125 152.021 112.38 152.361 112.567C152.701 112.749 153.097 112.84 153.548 112.84C153.993 112.84 154.383 112.749 154.717 112.567C155.057 112.38 155.338 112.125 155.561 111.803C155.783 111.48 155.95 111.111 156.062 110.695C156.179 110.273 156.237 109.825 156.237 109.351V109.148C156.237 108.68 156.179 108.237 156.062 107.821C155.95 107.399 155.78 107.027 155.552 106.705C155.329 106.377 155.048 106.119 154.708 105.932C154.374 105.744 153.981 105.65 153.53 105.65C153.085 105.65 152.692 105.744 152.353 105.932C152.019 106.119 151.737 106.377 151.509 106.705C151.286 107.027 151.119 107.399 151.008 107.821C150.896 108.237 150.841 108.68 150.841 109.148ZM165.448 111.478C165.448 111.243 165.396 111.026 165.29 110.827C165.19 110.622 164.982 110.438 164.666 110.273C164.355 110.104 163.887 109.957 163.26 109.834C162.732 109.723 162.255 109.591 161.827 109.438C161.405 109.286 161.045 109.102 160.746 108.885C160.453 108.668 160.228 108.413 160.069 108.12C159.911 107.827 159.832 107.484 159.832 107.092C159.832 106.717 159.914 106.362 160.078 106.028C160.248 105.694 160.485 105.398 160.79 105.141C161.101 104.883 161.473 104.681 161.906 104.534C162.34 104.388 162.823 104.314 163.356 104.314C164.118 104.314 164.769 104.449 165.308 104.719C165.847 104.988 166.26 105.349 166.547 105.8C166.834 106.245 166.978 106.74 166.978 107.285H165.352C165.352 107.021 165.272 106.767 165.114 106.521C164.962 106.269 164.736 106.061 164.438 105.896C164.145 105.732 163.784 105.65 163.356 105.65C162.905 105.65 162.539 105.721 162.258 105.861C161.982 105.996 161.78 106.169 161.651 106.38C161.528 106.591 161.467 106.813 161.467 107.048C161.467 107.224 161.496 107.382 161.555 107.522C161.619 107.657 161.73 107.783 161.889 107.9C162.047 108.012 162.27 108.117 162.557 108.217C162.844 108.316 163.21 108.416 163.655 108.516C164.435 108.691 165.076 108.902 165.58 109.148C166.084 109.395 166.459 109.696 166.705 110.054C166.951 110.411 167.074 110.845 167.074 111.354C167.074 111.771 166.986 112.151 166.811 112.497C166.641 112.843 166.392 113.142 166.063 113.394C165.741 113.64 165.354 113.833 164.903 113.974C164.458 114.108 163.957 114.176 163.4 114.176C162.562 114.176 161.854 114.026 161.273 113.728C160.693 113.429 160.254 113.042 159.955 112.567C159.656 112.093 159.507 111.592 159.507 111.064H161.142C161.165 111.51 161.294 111.864 161.528 112.128C161.763 112.386 162.05 112.57 162.39 112.682C162.729 112.787 163.066 112.84 163.4 112.84C163.846 112.84 164.218 112.781 164.517 112.664C164.821 112.547 165.053 112.386 165.211 112.181C165.369 111.976 165.448 111.741 165.448 111.478ZM174.747 111.478C174.747 111.243 174.694 111.026 174.589 110.827C174.489 110.622 174.281 110.438 173.965 110.273C173.654 110.104 173.186 109.957 172.559 109.834C172.031 109.723 171.554 109.591 171.126 109.438C170.704 109.286 170.344 109.102 170.045 108.885C169.752 108.668 169.526 108.413 169.368 108.12C169.21 107.827 169.131 107.484 169.131 107.092C169.131 106.717 169.213 106.362 169.377 106.028C169.547 105.694 169.784 105.398 170.089 105.141C170.399 104.883 170.771 104.681 171.205 104.534C171.639 104.388 172.122 104.314 172.655 104.314C173.417 104.314 174.067 104.449 174.606 104.719C175.146 104.988 175.559 105.349 175.846 105.8C176.133 106.245 176.276 106.74 176.276 107.285H174.65C174.65 107.021 174.571 106.767 174.413 106.521C174.261 106.269 174.035 106.061 173.736 105.896C173.443 105.732 173.083 105.65 172.655 105.65C172.204 105.65 171.838 105.721 171.557 105.861C171.281 105.996 171.079 106.169 170.95 106.38C170.827 106.591 170.766 106.813 170.766 107.048C170.766 107.224 170.795 107.382 170.854 107.522C170.918 107.657 171.029 107.783 171.188 107.9C171.346 108.012 171.568 108.117 171.855 108.217C172.143 108.316 172.509 108.416 172.954 108.516C173.733 108.691 174.375 108.902 174.879 109.148C175.383 109.395 175.758 109.696 176.004 110.054C176.25 110.411 176.373 110.845 176.373 111.354C176.373 111.771 176.285 112.151 176.109 112.497C175.939 112.843 175.69 113.142 175.362 113.394C175.04 113.64 174.653 113.833 174.202 113.974C173.757 114.108 173.256 114.176 172.699 114.176C171.861 114.176 171.152 114.026 170.572 113.728C169.992 113.429 169.553 113.042 169.254 112.567C168.955 112.093 168.806 111.592 168.806 111.064H170.44C170.464 111.51 170.593 111.864 170.827 112.128C171.062 112.386 171.349 112.57 171.688 112.682C172.028 112.787 172.365 112.84 172.699 112.84C173.145 112.84 173.517 112.781 173.815 112.664C174.12 112.547 174.352 112.386 174.51 112.181C174.668 111.976 174.747 111.741 174.747 111.478ZM186.955 104.49V105.738H181.813V104.49H186.955ZM183.554 102.179H185.18V111.645C185.18 111.967 185.229 112.21 185.329 112.374C185.429 112.538 185.558 112.646 185.716 112.699C185.874 112.752 186.044 112.778 186.226 112.778C186.36 112.778 186.501 112.767 186.647 112.743C186.8 112.714 186.914 112.69 186.99 112.673L186.999 114C186.87 114.041 186.7 114.079 186.489 114.114C186.284 114.155 186.035 114.176 185.742 114.176C185.344 114.176 184.978 114.097 184.644 113.938C184.31 113.78 184.043 113.517 183.844 113.147C183.65 112.772 183.554 112.269 183.554 111.636V102.179ZM190.488 100.5V114H188.862V100.5H190.488ZM190.102 108.885L189.425 108.858C189.431 108.208 189.527 107.607 189.715 107.057C189.902 106.5 190.166 106.017 190.506 105.606C190.846 105.196 191.25 104.88 191.719 104.657C192.193 104.429 192.718 104.314 193.292 104.314C193.761 104.314 194.183 104.379 194.558 104.508C194.933 104.631 195.252 104.83 195.516 105.105C195.785 105.381 195.99 105.738 196.131 106.178C196.271 106.611 196.342 107.142 196.342 107.769V114H194.707V107.751C194.707 107.253 194.634 106.854 194.487 106.556C194.341 106.251 194.127 106.031 193.846 105.896C193.564 105.756 193.219 105.686 192.809 105.686C192.404 105.686 192.035 105.771 191.701 105.94C191.373 106.11 191.089 106.345 190.849 106.644C190.614 106.942 190.43 107.285 190.295 107.672C190.166 108.053 190.102 108.457 190.102 108.885ZM202.723 114.176C202.061 114.176 201.46 114.064 200.921 113.842C200.388 113.613 199.928 113.294 199.541 112.884C199.16 112.474 198.867 111.987 198.662 111.425C198.457 110.862 198.354 110.247 198.354 109.579V109.21C198.354 108.437 198.469 107.748 198.697 107.145C198.926 106.535 199.236 106.02 199.629 105.598C200.021 105.176 200.467 104.856 200.965 104.64C201.463 104.423 201.979 104.314 202.512 104.314C203.191 104.314 203.777 104.432 204.27 104.666C204.768 104.9 205.175 105.229 205.491 105.65C205.808 106.066 206.042 106.559 206.194 107.127C206.347 107.689 206.423 108.305 206.423 108.973V109.702H199.321V108.375H204.797V108.252C204.773 107.83 204.686 107.42 204.533 107.021C204.387 106.623 204.152 106.295 203.83 106.037C203.508 105.779 203.068 105.65 202.512 105.65C202.143 105.65 201.803 105.729 201.492 105.888C201.182 106.04 200.915 106.269 200.692 106.573C200.47 106.878 200.297 107.25 200.174 107.689C200.051 108.129 199.989 108.636 199.989 109.21V109.579C199.989 110.03 200.051 110.455 200.174 110.854C200.303 111.246 200.487 111.592 200.728 111.891C200.974 112.189 201.27 112.424 201.615 112.594C201.967 112.764 202.365 112.849 202.811 112.849C203.385 112.849 203.871 112.731 204.27 112.497C204.668 112.263 205.017 111.949 205.315 111.557L206.3 112.339C206.095 112.649 205.834 112.945 205.518 113.227C205.201 113.508 204.812 113.736 204.349 113.912C203.892 114.088 203.35 114.176 202.723 114.176ZM24.0059 126.49V136H22.3711V126.49H24.0059ZM22.248 123.968C22.248 123.704 22.3271 123.481 22.4854 123.3C22.6494 123.118 22.8896 123.027 23.2061 123.027C23.5166 123.027 23.7539 123.118 23.918 123.3C24.0879 123.481 24.1729 123.704 24.1729 123.968C24.1729 124.22 24.0879 124.437 23.918 124.618C23.7539 124.794 23.5166 124.882 23.2061 124.882C22.8896 124.882 22.6494 124.794 22.4854 124.618C22.3271 124.437 22.248 124.22 22.248 123.968ZM28.2422 128.521V136H26.6162V126.49H28.1543L28.2422 128.521ZM27.8555 130.885L27.1787 130.858C27.1846 130.208 27.2812 129.607 27.4688 129.057C27.6562 128.5 27.9199 128.017 28.2598 127.606C28.5996 127.196 29.0039 126.88 29.4727 126.657C29.9473 126.429 30.4717 126.314 31.0459 126.314C31.5146 126.314 31.9365 126.379 32.3115 126.508C32.6865 126.631 33.0059 126.83 33.2695 127.105C33.5391 127.381 33.7441 127.738 33.8848 128.178C34.0254 128.611 34.0957 129.142 34.0957 129.769V136H32.4609V129.751C32.4609 129.253 32.3877 128.854 32.2412 128.556C32.0947 128.251 31.8809 128.031 31.5996 127.896C31.3184 127.756 30.9727 127.686 30.5625 127.686C30.1582 127.686 29.7891 127.771 29.4551 127.94C29.127 128.11 28.8428 128.345 28.6025 128.644C28.3682 128.942 28.1836 129.285 28.0488 129.672C27.9199 130.053 27.8555 130.457 27.8555 130.885ZM40.5469 126.49V127.738H35.4053V126.49H40.5469ZM37.1455 124.179H38.7715V133.645C38.7715 133.967 38.8213 134.21 38.9209 134.374C39.0205 134.538 39.1494 134.646 39.3076 134.699C39.4658 134.752 39.6357 134.778 39.8174 134.778C39.9521 134.778 40.0928 134.767 40.2393 134.743C40.3916 134.714 40.5059 134.69 40.582 134.673L40.5908 136C40.4619 136.041 40.292 136.079 40.0811 136.114C39.876 136.155 39.627 136.176 39.334 136.176C38.9355 136.176 38.5693 136.097 38.2354 135.938C37.9014 135.78 37.6348 135.517 37.4355 135.147C37.2422 134.772 37.1455 134.269 37.1455 133.636V124.179ZM46.4004 136.176C45.7383 136.176 45.1377 136.064 44.5986 135.842C44.0654 135.613 43.6055 135.294 43.2188 134.884C42.8379 134.474 42.5449 133.987 42.3398 133.425C42.1348 132.862 42.0322 132.247 42.0322 131.579V131.21C42.0322 130.437 42.1465 129.748 42.375 129.145C42.6035 128.535 42.9141 128.02 43.3066 127.598C43.6992 127.176 44.1445 126.856 44.6426 126.64C45.1406 126.423 45.6562 126.314 46.1895 126.314C46.8691 126.314 47.4551 126.432 47.9473 126.666C48.4453 126.9 48.8525 127.229 49.1689 127.65C49.4854 128.066 49.7197 128.559 49.8721 129.127C50.0244 129.689 50.1006 130.305 50.1006 130.973V131.702H42.999V130.375H48.4746V130.252C48.4512 129.83 48.3633 129.42 48.2109 129.021C48.0645 128.623 47.8301 128.295 47.5078 128.037C47.1855 127.779 46.7461 127.65 46.1895 127.65C45.8203 127.65 45.4805 127.729 45.1699 127.888C44.8594 128.04 44.5928 128.269 44.3701 128.573C44.1475 128.878 43.9746 129.25 43.8516 129.689C43.7285 130.129 43.667 130.636 43.667 131.21V131.579C43.667 132.03 43.7285 132.455 43.8516 132.854C43.9805 133.246 44.165 133.592 44.4053 133.891C44.6514 134.189 44.9473 134.424 45.293 134.594C45.6445 134.764 46.043 134.849 46.4883 134.849C47.0625 134.849 47.5488 134.731 47.9473 134.497C48.3457 134.263 48.6943 133.949 48.9932 133.557L49.9775 134.339C49.7725 134.649 49.5117 134.945 49.1953 135.227C48.8789 135.508 48.4893 135.736 48.0264 135.912C47.5693 136.088 47.0273 136.176 46.4004 136.176ZM53.625 127.984V136H51.999V126.49H53.5811L53.625 127.984ZM56.5957 126.438L56.5869 127.949C56.4521 127.92 56.3232 127.902 56.2002 127.896C56.083 127.885 55.9482 127.879 55.7959 127.879C55.4209 127.879 55.0898 127.938 54.8027 128.055C54.5156 128.172 54.2725 128.336 54.0732 128.547C53.874 128.758 53.7158 129.01 53.5986 129.303C53.4873 129.59 53.4141 129.906 53.3789 130.252L52.9219 130.516C52.9219 129.941 52.9775 129.402 53.0889 128.898C53.2061 128.395 53.3848 127.949 53.625 127.562C53.8652 127.17 54.1699 126.865 54.5391 126.648C54.9141 126.426 55.3594 126.314 55.875 126.314C55.9922 126.314 56.127 126.329 56.2793 126.358C56.4316 126.382 56.5371 126.408 56.5957 126.438ZM59.7246 128.521V136H58.0986V126.49H59.6367L59.7246 128.521ZM59.3379 130.885L58.6611 130.858C58.667 130.208 58.7637 129.607 58.9512 129.057C59.1387 128.5 59.4023 128.017 59.7422 127.606C60.082 127.196 60.4863 126.88 60.9551 126.657C61.4297 126.429 61.9541 126.314 62.5283 126.314C62.9971 126.314 63.4189 126.379 63.7939 126.508C64.1689 126.631 64.4883 126.83 64.752 127.105C65.0215 127.381 65.2266 127.738 65.3672 128.178C65.5078 128.611 65.5781 129.142 65.5781 129.769V136H63.9434V129.751C63.9434 129.253 63.8701 128.854 63.7236 128.556C63.5771 128.251 63.3633 128.031 63.082 127.896C62.8008 127.756 62.4551 127.686 62.0449 127.686C61.6406 127.686 61.2715 127.771 60.9375 127.94C60.6094 128.11 60.3252 128.345 60.085 128.644C59.8506 128.942 59.666 129.285 59.5312 129.672C59.4023 130.053 59.3379 130.457 59.3379 130.885ZM71.9941 136.176C71.332 136.176 70.7314 136.064 70.1924 135.842C69.6592 135.613 69.1992 135.294 68.8125 134.884C68.4316 134.474 68.1387 133.987 67.9336 133.425C67.7285 132.862 67.626 132.247 67.626 131.579V131.21C67.626 130.437 67.7402 129.748 67.9688 129.145C68.1973 128.535 68.5078 128.02 68.9004 127.598C69.293 127.176 69.7383 126.856 70.2363 126.64C70.7344 126.423 71.25 126.314 71.7832 126.314C72.4629 126.314 73.0488 126.432 73.541 126.666C74.0391 126.9 74.4463 127.229 74.7627 127.65C75.0791 128.066 75.3135 128.559 75.4658 129.127C75.6182 129.689 75.6943 130.305 75.6943 130.973V131.702H68.5928V130.375H74.0684V130.252C74.0449 129.83 73.957 129.42 73.8047 129.021C73.6582 128.623 73.4238 128.295 73.1016 128.037C72.7793 127.779 72.3398 127.65 71.7832 127.65C71.4141 127.65 71.0742 127.729 70.7637 127.888C70.4531 128.04 70.1865 128.269 69.9639 128.573C69.7412 128.878 69.5684 129.25 69.4453 129.689C69.3223 130.129 69.2607 130.636 69.2607 131.21V131.579C69.2607 132.03 69.3223 132.455 69.4453 132.854C69.5742 133.246 69.7588 133.592 69.999 133.891C70.2451 134.189 70.541 134.424 70.8867 134.594C71.2383 134.764 71.6367 134.849 72.082 134.849C72.6562 134.849 73.1426 134.731 73.541 134.497C73.9395 134.263 74.2881 133.949 74.5869 133.557L75.5713 134.339C75.3662 134.649 75.1055 134.945 74.7891 135.227C74.4727 135.508 74.083 135.736 73.6201 135.912C73.1631 136.088 72.6211 136.176 71.9941 136.176ZM81.5742 126.49V127.738H76.4326V126.49H81.5742ZM78.1729 124.179H79.7988V133.645C79.7988 133.967 79.8486 134.21 79.9482 134.374C80.0479 134.538 80.1768 134.646 80.335 134.699C80.4932 134.752 80.6631 134.778 80.8447 134.778C80.9795 134.778 81.1201 134.767 81.2666 134.743C81.4189 134.714 81.5332 134.69 81.6094 134.673L81.6182 136C81.4893 136.041 81.3193 136.079 81.1084 136.114C80.9033 136.155 80.6543 136.176 80.3613 136.176C79.9629 136.176 79.5967 136.097 79.2627 135.938C78.9287 135.78 78.6621 135.517 78.4629 135.147C78.2695 134.772 78.1729 134.269 78.1729 133.636V124.179ZM83.5078 135.139C83.5078 134.863 83.5928 134.632 83.7627 134.444C83.9385 134.251 84.1904 134.154 84.5186 134.154C84.8467 134.154 85.0957 134.251 85.2656 134.444C85.4414 134.632 85.5293 134.863 85.5293 135.139C85.5293 135.408 85.4414 135.637 85.2656 135.824C85.0957 136.012 84.8467 136.105 84.5186 136.105C84.1904 136.105 83.9385 136.012 83.7627 135.824C83.5928 135.637 83.5078 135.408 83.5078 135.139Z" fill="white"/>
<path d="M48.5642 38.8956C48.2648 38.8956 47.9653 38.7457 47.7906 38.4834L43.7978 32.5117C43.6605 32.2993 43.6106 32.0495 43.6605 31.8121C43.7104 31.5747 43.8477 31.3498 44.0598 31.2124L51.1222 26.4775C51.6712 26.1027 52.3325 25.9778 52.9813 26.1028C53.6302 26.2277 54.1917 26.6025 54.566 27.1522L56.837 30.5378C57.5981 31.6747 57.2986 33.2238 56.1507 33.9859L49.1008 38.7208C48.9261 38.8457 48.7514 38.8956 48.5642 38.8956ZM45.8815 32.2494L48.8263 36.6594L55.1026 32.4492C55.3895 32.2618 55.4644 31.8745 55.2648 31.5997L52.9938 28.2141C52.9065 28.0767 52.7692 27.9892 52.607 27.9517C52.4448 27.9143 52.2826 27.9517 52.1453 28.0392L45.8815 32.2494Z" fill="white"/>
<path d="M42.2132 42.2939C41.9137 42.2939 41.6143 42.144 41.4396 41.8817L38.2453 37.1092C37.9583 36.6845 38.0706 36.0973 38.5073 35.8099L44.4717 31.8121C44.6838 31.6747 44.9334 31.6247 45.1704 31.6747C45.42 31.7247 45.6321 31.8621 45.7694 32.0745L48.9637 36.8469C49.2507 37.2717 49.1384 37.8589 48.7016 38.1462L42.7373 42.144C42.5751 42.2439 42.3879 42.2939 42.2132 42.2939ZM40.3166 36.8469L42.4628 40.0577L46.8674 37.1092L44.7212 33.886L40.3166 36.8469Z" fill="white"/>
<path d="M36.3983 45.5172C35.6995 45.5172 35.0008 45.1799 34.5765 44.5428L33.1665 42.4439C32.8421 41.9567 32.7298 41.382 32.8421 40.8073C32.9544 40.2326 33.2788 39.7454 33.7655 39.4206L38.6942 36.1224C39.1184 35.8351 39.7048 35.9475 39.9918 36.3848L42.7868 40.5575C43.0738 40.9823 42.9615 41.5694 42.5248 41.8568L37.5961 45.1549C37.2343 45.3923 36.81 45.5172 36.3983 45.5172ZM38.9562 38.1838L34.8136 40.9573C34.6763 41.0572 34.6264 41.2446 34.7262 41.3945L36.1362 43.4934C36.236 43.6308 36.4232 43.6807 36.5729 43.5808L40.7155 40.8073L38.9562 38.1838Z" fill="white"/>
<path d="M39.2435 52.9254C39.1187 52.9254 38.9815 52.9004 38.8567 52.838C38.3825 52.6256 38.1829 52.0634 38.395 51.6012L43.9975 39.3579C44.2096 38.8831 44.7711 38.6832 45.2328 38.8956C45.707 39.108 45.9066 39.6702 45.6945 40.1324L40.092 52.3757C39.9298 52.7255 39.5929 52.9254 39.2435 52.9254Z" fill="white"/>
<path d="M50.3236 52.9254C49.9618 52.9254 49.6249 52.7255 49.4751 52.3757L43.935 40.1324C43.7229 39.6577 43.9351 39.108 44.3967 38.8956C44.8584 38.6832 45.4199 38.8956 45.632 39.3579L51.1721 51.6011C51.3842 52.0759 51.1721 52.6256 50.7104 52.838C50.5857 52.9004 50.4609 52.9254 50.3236 52.9254Z" fill="white"/>
<defs>
<filter id="filter0_b_302_680" x="-42.9507" y="-42.9507" width="331.901" height="243.938" filterUnits="userSpaceOnUse" color-interpolation-filters="sRGB">
<feFlood flood-opacity="0" result="BackgroundImageFix"/>
<feGaussianBlur in="BackgroundImageFix" stdDeviation="21.4754"/>
<feComposite in2="SourceAlpha" operator="in" result="effect1_backgroundBlur_302_680"/>
<feBlend mode="normal" in="SourceGraphic" in2="effect1_backgroundBlur_302_680" result="shape"/>
</filter>
<filter id="filter1_b_302_680" x="-22.0787" y="-25.0596" width="133.61" height="129.138" filterUnits="userSpaceOnUse" color-interpolation-filters="sRGB">
<feFlood flood-opacity="0" result="BackgroundImageFix"/>
<feGaussianBlur in="BackgroundImageFix" stdDeviation="21.4754"/>
<feComposite in2="SourceAlpha" operator="in" result="effect1_backgroundBlur_302_680"/>
<feBlend mode="normal" in="SourceGraphic" in2="effect1_backgroundBlur_302_680" result="shape"/>
</filter>
</defs>
</svg>
